<?xml version="1.0" standalone="no"?>
<!DOCTYPE svg PUBLIC "-//W3C//DTD SVG 20010904//EN"
 "http://www.w3.org/TR/2001/REC-SVG-20010904/DTD/svg10.dtd">
<svg version="1.0" xmlns="http://www.w3.org/2000/svg"
 width="1024.000000pt" height="26.000000pt" viewBox="0 0 1024.000000 26.000000"
 preserveAspectRatio="xMidYMid meet">

<g transform="translate(0.000000,26.000000) scale(0.100000,-0.100000)"
fill="#000000" stroke="none">
<path d="M5068 144 c-68 -37 -80 -144 -15 -144 29 0 29 1 14 18 -21 23 -12 35
14 19 16 -10 24 -6 57 26 53 52 62 33 10 -20 l-42 -43 56 0 c42 0 57 4 62 16
24 63 -36 145 -106 144 -13 -1 -35 -7 -50 -16z"/>
</g>
</svg>
